<?xml version="1.0" encoding="UTF-8"?>
<svg id="_レイヤー_2" data-name="レイヤー 2" xmlns="http://www.w3.org/2000/svg" viewBox="0 0 264 39.47">
  <defs>
    <style>
      .cls-1 {
        fill: #fff;
      }
    </style>
  </defs>
  <g id="design">
    <g>
      <g>
        <polygon class="cls-1" points="39 9.46 39 34.46 32 34.46 32 9.46 20.97 0 10 9.46 10 28.09 3.51 9.46 0 9.46 0 38.46 3 38.46 3 18.97 9.71 38.46 13 38.46 13 10.95 20.93 4.66 29 11.04 29 38.46 42 38.46 42 9.46 39 9.46"/>
        <polygon class="cls-1" points="14 38.46 28 38.46 28 22.46 21 22.46 21 26.46 24 26.46 24 35.46 17 35.46 17 15.46 24 15.46 24 21.46 27 21.46 27 11.46 14 11.46 14 38.46"/>
      </g>
      <g>
        <path class="cls-1" d="m61.63,6.54l4.37,1.37c.34.11.51.34.51.66,0,.35-.42.65-1.26.93-.21.35-.45.67-.68.96h5.36l2.09-1.8,3.16,2.45c.4.29.6.63.6,1.03,0,.31-.41.53-1.23.68-3.03,4.41-6.35,8.01-9.94,10.83-.41.29-.79.56-1.17.82h10.54l1.02-2.74,3.26,2.27c.56.43.85.81.85,1.14,0,.4-.37.83-1.1,1.3v10.19l-4,.91v-2.08h-11v1.49l-4,.92v-10.91c-1.65.85-3.43,1.61-5.33,2.28l-.23-.69c3.38-1.91,6.32-4.21,8.82-6.89.26-.29.55-.59.85-.89-.52-.21-.86-.71-1.03-1.52-.24-1.57-.8-2.8-1.68-3.7-2.22,2.44-4.31,4.3-6.27,5.56l-.45-.52c2.88-3.34,5.54-8.04,7.95-14.07Zm1.37,27.92h10v-9h-10v9Zm-1.71-20.01c.9.11,1.77.37,2.61.77,1.11.6,1.79,1.37,2.01,2.33,1.34-1.79,2.69-3.82,4.03-6.08h-6.08c-.86,1.07-1.71,2.07-2.57,2.99Z"/>
        <path class="cls-1" d="m89,24.46h12v11h-12v-11Zm15.09-10h-7.09v-4.52c.85-.38,1.27-.75,1.27-1.13,0-.41-.33-.68-1-.78l-4.27-.45v6.89h-11.34l.37,1h10.97v8h-3.81l-4.19-2.5v18.05l4-.71v-1.83h12v1.92l4-.66v-12.06c.69-.49,1.03-.9,1.03-1.25s-.27-.74-.81-1.16l-3.09-2.22-1.14,2.43h-3.99v-8h12v-1l-3.03-2.61-1.87,2.61Z"/>
        <path class="cls-1" d="m132.86,6.8l3.4,2.26c.58.42.87.79.87,1.12,0,.4-.36.81-1.13,1.23v4.51l-.26.07,3.26,2.41v1.07h-12.23l-2.74,4.21,7.97-.14v-.03c-.72-.84-1.63-1.59-2.74-2.29l.31-.69c3.03.62,5.16,1.39,6.38,2.28.99.76,1.49,1.53,1.49,2.31,0,1.71-.6,2.56-1.79,2.56-.61,0-1.24-.49-1.89-1.48-.24-.55-.55-1.1-.91-1.62l-7.23,1.83,3.65.38c.7.1,1.05.35,1.05.76s-.44.84-1.31,1.25v1.68h3.17l1.86-2.47,2.97,2.47v1h-8v5h4.57l2.14-2.76,3.29,2.76v1h-24.69l-.38-1h10.08v-5h-6.8l-.38-1h7.18v-3.63l-4.4,1.11c-.29.92-.53,1.39-.74,1.39-.34,0-.6-.31-.79-.93l-1.35-4.48,3.93-.07.64-4.37h-4.29v1.07c0,4.58-.52,8.07-1.53,10.49-1.13,2.8-2.73,5.16-4.77,7.07l-.31-.67c.98-2.45,1.69-4.92,2.1-7.38.35-2.3.52-5.47.52-9.52V6.99l4.29,2.47h14.59l.97-2.66Zm-15.86,11.66h17.02l1.78-2.37-3.8.87v-1.5h-15v3Zm0-8v4h15v-4h-15Z"/>
        <path class="cls-1" d="m146.55,9.21c1.37.91,2.22,2.3,2.58,4.21.23.9.76,1.35,1.59,1.35,1.14,0,1.77-.76,1.91-2.29,0-1.3-.65-2.32-1.94-3.06-1.23-.6-2.53-.9-3.9-.9l-.25.69Zm6.22-1.21c1.43.95,2.32,2.44,2.68,4.48.23.99.76,1.49,1.6,1.49,1.23,0,1.92-.77,2.08-2.33,0-1.41-.68-2.54-2.05-3.37-1.29-.65-2.65-.97-4.06-.97l-.24.7Zm6.73,7.46h-12.7c-.08-.98-.38-2-.38-2h-.85c-.29,1.74-.79,2.79-1.47,3.17-.39.11-.9.45-1.54,1.02-.39.37-.59.82-.62,1.34.08,1.71.88,2.57,2.44,2.57.62,0,1.19-.35,1.71-1.06.48-.62.76-1.74.83-3.36,0-.24-.01-.46-.04-.69h19l-1.34,3.85-3.11-2.35-1.26,1.5h-12.82l.38,1h12.07l-2.34,3.48-3.46-.35v2.87h-12.21l.39,1h11.82v6h-4v.83c1.03.21,1.7.47,2.01.76.41.45.66,1.12.72,2.02.06.77.35,1.15.86,1.15,1.42,0,2.5-.27,3.22-.83.79-.58,1.18-1.3,1.18-2.16v-7.77h12v-1l-3.41-2.87-2.09,2.87h-6.5v-1.22s1.51-.71,1-1.09v-.06l4.64-2.55c1.15,0,1.74-.18,1.74-.52,0-.12-.03-.24-.1-.35l3.89-3.21c.88-.16,1.32-.47,1.32-.93,0-.33-.16-.61-.49-.83-.04,0-1.11-.86-3.19-2.57l-.84,2.34h-4.79l5.04-4.77c.9-.12,1.36-.4,1.36-.84,0-.41-.27-.74-.81-.97l-4.2-1.74c-.81,2.4-1.83,5.09-3.05,8.32Z"/>
        <path class="cls-1" d="m181.03,7.25l3.56,2.88c.22.19.33.42.33.71,0,.37-.34.61-1.01.7-1.35,2.84-2.69,5.49-4.03,7.96,1.55,1.08,2.71,2.25,3.47,3.52.28.46.5.95.68,1.44h11.99l2.05-3.28,2.93,2.71v.56h-6v8.31s.98,1.08,1.65.69h.97c.29.39.54-.28.72-1.59l.35-3.41h1.3v3.56c0,1.39.82,2.24,2.46,2.58-.39,2.58-1.24,3.87-2.56,3.87h-5.46c-1.63,0-2.44-.85-2.44-2.54v-10.46h-2v1.91c0,1.95-.25,3.64-.74,5.08-.64,1.8-1.7,3.25-3.15,4.34-1.48,1.05-3.64,1.93-6.47,2.68l-.37-.7c2.66-1.46,4.53-3.2,5.6-5.22.75-1.45,1.14-3.52,1.14-6.18v-2.91h-2.07c.27.99.4,2.08.4,3.26,0,1.32-.23,2.33-.7,3.02-.63.98-1.83,1.47-3.63,1.47-.34,0-.58-.4-.74-1.18-.11-.81-.53-1.37-1.27-1.67v9.44l-4,.57V7.52l3.82,1.94h2.21l1.01-2.21Zm-4.03,3.21v18h2.71c0-3.67-.62-6.69-1.87-9.07.57-3.6.96-6.58,1.14-8.93h-1.97Zm12-3.24l4.25.46c.69.09,1.05.34,1.05.76,0,.37-1.3,1.11-1.3,1.11v2.92h3.97l.89-2.05c2.1,1.71,3.18,2.57,3.22,2.57.36.24.54.52.54.84,0,.47-.46.77-1.38.95l-3.48,2.66,1.24,1.04v.99h-12.59l-.39-1h7.81l1.99-2.59,1.11.97.8-3.38h-10.61s.11.76.11,1.14c-.03.95-.24,1.73-.66,2.36-.51.7-1.03,1.05-1.53,1.05-1.11,0-1.79-.64-2.05-1.91,0-.56.15-1.1.46-1.63.58-.42,1.07-.93,1.49-1.51.35-.57.59-1.48.59-1.48h.88s.36.47.49,1h3.12v-5.24Z"/>
        <path class="cls-1" d="m229.17,13.3l3.83,3.16v1h-12.42s2.02,6.49,3.9,9.24c1.55,2.3,4.29,4.71,8.23,7.27l-.27.8c-1.32.55-2.21,1.59-2.68,3.12-3.43-2.39-5.88-5.13-7.36-8.23-1.13-2.16-1.92-4.97-2.33-8.45-.37,3.89-1.33,7.04-2.88,9.45-2.07,3.28-6.15,5.92-12.25,7.93l-.38-.69c4.31-2.69,7.32-5.7,9.04-9.03,1.34-2.66,2.05-6.3,2.11-11.4h-10.53l-.34-1h11.17V7.44l4.89.7c.45.16.66.42.66.8s-1.55,1.36-1.55,1.36v6.17h6.86l2.31-3.16Z"/>
        <path class="cls-1" d="m246.6,8c1.43.95,2.33,2.44,2.68,4.48.23.99.76,1.49,1.6,1.49,1.23,0,1.92-.77,2.09-2.33,0-1.41-.69-2.54-2.06-3.37-1.29-.65-2.64-.97-4.06-.97l-.24.7Zm-6.22,1.21c1.37.91,2.22,2.3,2.58,4.21.23.9.76,1.35,1.59,1.35,1.13,0,1.77-.76,1.91-2.29,0-1.3-.65-2.32-1.94-3.06-1.23-.6-2.53-.9-3.9-.9l-.24.69Zm12.63,6.25h-11.43c-.06-.67-.17-1.34-.34-2h-1.84c-.29,1.74-.78,2.79-1.47,3.17-.39.11-.9.45-1.54,1.02-.39.37-.59.82-.62,1.34.08,1.71.88,2.57,2.44,2.57.62,0,1.19-.35,1.71-1.06.48-.62.75-1.74.82-3.36,0-.24,0-.46-.03-.69h18.99l-1.34,3.85-3.1-2.35-1.27,1.5h-12.64l.38,1h12.07l-2.34,3.48-3.45-.35v2.87h-12.2l.38,1h11.82v6h-4v.83c1.03.21,1.71.47,2.02.76.41.45.66,1.12.72,2.02.07.77.35,1.15.86,1.15,1.41,0,2.49-.27,3.21-.83.78-.58,1.18-1.3,1.18-2.16v-7.77h12v-1l-3.41-2.87-2.09,2.87h-6.5v-1.15c.66-.35,1-.69,1-1.06v-.06l3.72-2.49c1.04,0,1.57-.17,1.57-.51,0-.12-.04-.23-.1-.34l3.51-3.14c.78-.16,1.19-.46,1.19-.91,0-.32-.15-.6-.45-.82-.03,0-1-.84-2.87-2.52l-.75,2h-4.32l4.53-4.37c.81-.11,1.23-.39,1.23-.82,0-.4-.24-.73-.72-.95l-3.78-1.7c-.73,2.35-1.65,4.97-2.75,7.84Z"/>
      </g>
    </g>
  </g>
</svg>