<?xml version="1.0" encoding="UTF-8"?>
<svg id="_レイヤー_2" data-name="レイヤー 2" xmlns="http://www.w3.org/2000/svg" viewBox="0 0 25 27.48">
  <g id="design">
    <g>
      <path d="m18.85,0h0s-13.28,0-13.28,0c-.8,0-1.45.65-1.45,1.45v6.44h1.93V1.93h10.87v6.14h6.14v17.48H6.05v-5.96h-1.93v6.45c0,.8.65,1.45,1.45,1.45h17.98c.8,0,1.45-.65,1.45-1.45V6.14s0,0,0,0L18.85,0Zm0,6.14v-3.41l3.41,3.41h-3.41Z"/>
      <g>
        <path d="m7.57,12.36h-.56v2.75h.58c.78,0,1.23-.5,1.23-1.38s-.44-1.38-1.24-1.38Z"/>
        <path d="m15.31,9.34H.48c-.27,0-.48.22-.48.48v7.83c0,.27.22.48.48.48h14.82c.27,0,.48-.22.48-.48v-7.83c0-.27-.22-.48-.48-.48ZM3.62,14.45h-.69v1.68h-1.07v-4.81h1.78c.93,0,1.53.66,1.53,1.56,0,.97-.58,1.57-1.55,1.57Zm5.73,1.06c-.41.43-.98.65-1.65.65h-1.9v-4.85h1.89c1.37,0,2.29.97,2.29,2.42,0,.73-.22,1.34-.63,1.77Zm4.58-3.26h-2.01v1.12h1.74v.91h-1.74v1.84h-1.21v-4.82h3.22v.94Z"/>
        <path d="m3.4,12.29h-.48v1.2h.49c.38,0,.69-.15.69-.6s-.31-.6-.7-.6Z"/>
      </g>
    </g>
  </g>
</svg>